<svg width="217" height="92" viewBox="0 0 217 92" fill="none" xmlns="http://www.w3.org/2000/svg">
<path d="M116.402 78V54.996H119.39V78H116.402ZM118.094 68.37V65.868H129.956V68.37H118.094ZM117.266 57.498V54.996H130.226V57.498H117.266ZM140.783 78V55.482H143.771V78H140.783ZM133.889 57.498V54.996H150.665V57.498H133.889ZM161.794 78.414C160.69 78.414 159.676 78.324 158.752 78.144C157.84 77.964 157.024 77.742 156.304 77.478C155.584 77.214 154.984 76.95 154.504 76.686L154.198 73.716C155.122 74.268 156.208 74.754 157.456 75.174C158.716 75.582 160.084 75.786 161.56 75.786C163.336 75.786 164.65 75.474 165.502 74.85C166.354 74.214 166.78 73.266 166.78 72.006V71.718C166.78 70.89 166.612 70.212 166.276 69.684C165.94 69.156 165.37 68.712 164.566 68.352C163.774 67.992 162.694 67.656 161.326 67.344C159.598 66.936 158.212 66.456 157.168 65.904C156.136 65.34 155.386 64.638 154.918 63.798C154.462 62.958 154.234 61.914 154.234 60.666V60.504C154.234 58.62 154.852 57.168 156.088 56.148C157.324 55.116 159.196 54.6 161.704 54.6C163.348 54.6 164.746 54.768 165.898 55.104C167.062 55.44 168.01 55.812 168.742 56.22L169.012 58.956C168.16 58.452 167.164 58.026 166.024 57.678C164.896 57.318 163.6 57.138 162.136 57.138C160.972 57.138 160.03 57.276 159.31 57.552C158.59 57.828 158.068 58.224 157.744 58.74C157.42 59.256 157.258 59.88 157.258 60.612V60.684C157.258 61.428 157.414 62.064 157.726 62.592C158.05 63.12 158.608 63.576 159.4 63.96C160.204 64.344 161.344 64.716 162.82 65.076C164.512 65.472 165.868 65.928 166.888 66.444C167.908 66.96 168.646 67.632 169.102 68.46C169.57 69.288 169.804 70.368 169.804 71.7V72.078C169.804 74.154 169.132 75.732 167.788 76.812C166.456 77.88 164.458 78.414 161.794 78.414ZM181.805 75.282L180.275 75.948L185.531 60.432H188.537L180.275 84.192H177.323L180.095 76.164L181.373 77.28H178.061L172.319 60.432H175.343L180.131 75.282H181.805Z" fill="#3D00B7"/>
<path d="M110.337 17C110.337 17 93.1065 80.6867 80.5351 80.6867C73.9639 80.6867 70.1069 66.4363 66.5409 52.8332L88.3373 34.9999L110.337 17Z" fill="url(#paint0_linear_207_645)"/>
<path d="M55.837 28.5311C46.1666 28.5311 22.5185 89 22.5185 89L66.5185 53.0002L66.7221 52.8337C63.466 40.4126 60.4525 28.5311 55.837 28.5311Z" fill="url(#paint1_linear_207_645)"/>
<path d="M22.5185 88.9995C22.5185 88.9995 46.1666 28.5306 55.837 28.5306C65.5073 28.5306 68.1449 80.6867 80.7163 80.6867C93.2877 80.6867 110.518 17 110.518 17" stroke="#3D00B7" stroke-width="6" stroke-linecap="round"/>
<defs>
<linearGradient id="paint0_linear_207_645" x1="66.5409" y1="47.795" x2="90.0852" y2="71.9331" gradientUnits="userSpaceOnUse">
<stop offset="0.266248" stop-color="#3D00B7" stop-opacity="0"/>
<stop offset="1" stop-color="#3D00B7"/>
</linearGradient>
<linearGradient id="paint1_linear_207_645" x1="42.9289" y1="35.6513" x2="63.2133" y2="59.6571" gradientUnits="userSpaceOnUse">
<stop stop-color="#3D00B7"/>
<stop offset="0.893425" stop-color="#3D00B7" stop-opacity="0"/>
</linearGradient>
</defs>
</svg>
